<?xml version="1.0" standalone="no"?><!DOCTYPE svg PUBLIC "-//W3C//DTD SVG 1.1//EN" "http://www.w3.org/Graphics/SVG/1.1/DTD/svg11.dtd"><svg t="1774776862634" class="icon" viewBox="0 0 1024 1024" version="1.1" xmlns="http://www.w3.org/2000/svg" p-id="5379" xmlns:xlink="http://www.w3.org/1999/xlink" width="200" height="200"><path d="M984.160195 203.17917H57.988624a22.378321 22.378321 0 0 0-22.378321 22.378321v569.048734a22.378321 22.378321 0 0 0 22.378321 22.378321h926.171571a22.378321 22.378321 0 0 0 22.378321-22.378321v-569.048734a22.378321 22.378321 0 0 0-22.378321-22.378321z m-22.378321 569.048734H80.366945v-524.292092h881.414929v524.292092z" fill="#8a8a8a" p-id="5380"></path><path d="M121.188199 709.146614a22.378321 22.378321 0 1 0 44.756642 0c0-80.117586 65.181655-145.296044 145.296044-145.296044s145.296044 65.181655 145.296045 145.296044a22.378321 22.378321 0 1 0 44.756642 0c0-77.569654-46.735525-144.391321-113.506041-173.898735 35.175524-24.354007 58.276345-64.97066 58.276345-110.900565 0-74.343979-60.482208-134.826187-134.826188-134.826188s-134.826187 60.482208-134.826187 134.826188c0 45.929905 23.100821 86.546558 58.276345 110.900565-66.764122 29.510612-113.499647 96.332278-113.499647 173.898735z m190.052686-374.868846c49.663888 0 90.069545 40.405657 90.069546 90.069546s-40.405657 90.069545-90.069546 90.069545-90.069545-40.405657-90.069545-90.069545 40.405657-90.069545 90.069545-90.069546zM579.656058 398.215828h319.6903a22.378321 22.378321 0 1 0 0-44.756642h-319.6903a22.378321 22.378321 0 1 0 0 44.756642zM579.656058 535.682657h319.6903a22.378321 22.378321 0 1 0 0-44.756642h-319.6903a22.378321 22.378321 0 1 0 0 44.756642zM579.656058 673.149486h319.6903a22.378321 22.378321 0 1 0 0-44.756642h-319.6903a22.378321 22.378321 0 1 0 0 44.756642z" fill="#8a8a8a" p-id="5381"></path></svg>