<?xml version="1.0" standalone="no"?><!DOCTYPE svg PUBLIC "-//W3C//DTD SVG 1.1//EN" "http://www.w3.org/Graphics/SVG/1.1/DTD/svg11.dtd"><svg t="1774777171104" class="icon" viewBox="0 0 1024 1024" version="1.1" xmlns="http://www.w3.org/2000/svg" p-id="12398" xmlns:xlink="http://www.w3.org/1999/xlink" width="200" height="200"><path d="M686.08 1021.952c90.112 0 163.84-34.816 163.84-75.776s-73.728-77.824-163.84-77.824-163.84 32.768-163.84 75.776 73.728 77.824 163.84 77.824z m-348.16 0c90.112 0 163.84-34.816 163.84-75.776s-73.728-77.824-163.84-77.824-163.84 32.768-163.84 75.776 73.728 77.824 163.84 77.824z m0 0" fill="#F5B824" p-id="12399"></path><path d="M165.888 722.944c49.152 147.456 188.416 245.76 342.016 243.712h4.096c155.648 2.048 294.912-96.256 342.016-243.712 51.2 108.544 51.2 86.016 61.44 77.824 86.016-137.216-38.912-294.912-38.912-294.912l-34.816-118.784C839.68 0 528.384 0 512 0 495.616 0 184.32 0 184.32 387.072l-36.864 118.784s-124.928 157.696-40.96 294.912c8.192 6.144 8.192 30.72 59.392-77.824z m0 0" fill="#121213" p-id="12400"></path><path d="M591.872 348.16c36.864 0 65.536-40.96 65.536-94.208 0-51.2-28.672-94.208-65.536-94.208-36.864 0-65.536 43.008-65.536 94.208 0 53.248 28.672 94.208 65.536 94.208z m-169.984 0c36.864 0 65.536-40.96 65.536-92.16s-30.72-94.208-65.536-94.208c-36.864 0-65.536 43.008-65.536 94.208-2.048 51.2 26.624 92.16 65.536 92.16z m0 0" fill="#FFFFFF" p-id="12401"></path><path d="M442.368 294.912c16.384 0 28.672-18.432 28.672-40.96s-12.288-40.96-28.672-40.96c-16.384 0-28.672 18.432-28.672 40.96s14.336 40.96 28.672 40.96z m174.08 6.144c16.384 0 28.672-18.432 28.672-40.96s-12.288-40.96-28.672-40.96c-16.384 0-28.672 18.432-28.672 40.96-2.048 22.528 12.288 40.96 28.672 40.96z m0 0" fill="#161616" p-id="12402"></path><path d="M512 950.272c376.832 0 268.288-483.328 268.288-483.328-77.824 57.344-172.032 88.064-268.288 83.968-96.256 4.096-190.464-24.576-268.288-83.968C165.888 409.6 135.168 950.272 512 950.272z m0 0" fill="#FAFAFB" p-id="12403"></path><path d="M276.48 606.208c-2.048 34.816-8.192 88.064-8.192 114.688 0 43.008 26.624 45.056 86.016 51.2 59.392 6.144 47.104-10.24 47.104-36.864v-86.016c34.816 8.192 71.68 10.24 108.544 8.192 139.264 6.144 272.384-51.2 364.544-153.6-6.144-40.96-20.48-79.872-36.864-116.736-73.728 108.544-198.656 169.984-327.68 161.792-129.024 8.192-253.952-53.248-327.68-159.744-16.384 38.912-28.672 77.824-36.864 118.784 36.864 38.912 81.92 73.728 131.072 98.304z m0 0" fill="#D53118" p-id="12404"></path><path d="M512 487.424c73.728 2.048 145.408-16.384 208.896-51.2v-4.096s-8.192-14.336-30.72-22.528c-57.344-22.528-116.736-34.816-178.176-34.816-59.392 2.048-118.784 12.288-176.128 34.816-24.576 8.192-34.816 14.336-34.816 24.576v4.096c63.488 34.816 137.216 51.2 210.944 49.152z m0 0" fill="#F0B225" p-id="12405"></path></svg>